# xmcd
#
# Track frame offsets:
#	180
#	18434
#	32750
#	65137
#	76891
#	101287
#	118620
#	131306
#	147332
#	156098
#	171791
#	193273
#	206175
#	228836
#
# Disc length: 3228 seconds
# Revision: 0
# Processed by: cddbd v1.5.2PL0 Copyright (c) Steve Scherf et al.
# Submitted via: dBpowerAMP V12.0
#
DISCID=bc0c9a0e
DTITLE=The Mollys - This Is My Round
DYEAR=1900
DGENRE=
TTITLE0=One Day I Went Out Walking
TTITLE1=Kathleen
TTITLE2=El Viejo Rico
TTITLE3=El Primero Beso
TTITLE4=On We Go - Drink To Me
TTITLE5=Johnny Will You Cross
TTITLE6=Walking Down The Road
TTITLE7=This Is My Round
TTITLE8=Three Drunken Maidens
TTITLE9=On The Mountain High
TTITLE10=My Old Mother
TTITLE11=Where You Been
TTITLE12=Old Woman's Lament
TTITLE13=The Haggis
EXTD=
EXTT0=
EXTT1=
EXTT2=
EXTT3=
EXTT4=
EXTT5=
EXTT6=
EXTT7=
EXTT8=
EXTT9=
EXTT10=
EXTT11=
EXTT12=
EXTT13=
PLAYORDER=
